<svg xmlns="http://www.w3.org/2000/svg" xmlns:svg="http://www.w3.org/2000/svg" style="enable-background:new 0 0 579 474" id="Layer_1" x="0" y="0" version="1.1" viewBox="0 0 579 474" xml:space="preserve"><metadata id="metadata110"/><style id="style79" type="text/css">.st0{fill:#e9edf5}.st1{fill:#b2819f}.st2,.st3{fill:#e9edf5;stroke:#b2819f;stroke-width:20;stroke-miterlimit:10}.st3{fill:none}</style><title id="title81">code-mobile</title><g id="screen"><path id="path83" d="M10,464V76.6C10,45.9,34.9,21,65.6,21h447.8c30.7,0,55.6,24.9,55.6,55.6V464H10z" class="st0"/><path id="path85" d="M513.4,11H65.6C29.4,11,0,40.4,0,76.6V203c6.5,0,13.4,0,20,0V76.6C20,51.4,40.4,31,65.6,31h447.8 c25.2,0,45.6,20.4,45.6,45.6V454H20V203c-6.6,0-13.5,0-20,0v271h579V76.6C579,40.4,549.6,11,513.4,11z" class="st1"/><path id="path87" d="M579,98H0V46.1C0,20.7,20.7,0,46.1,0h486.7C558.3,0,579,20.7,579,46.1l0,0V98z" class="st1"/><path id="path89" d="M558.4,76.1H20V47.4c0-14.1,19.2-25.5,42.9-25.5h452.6c23.7,0,43,11.5,43,25.5l0,0V76.1z" class="st0"/><path id="path91" d="M98.8,258.4" class="st2"/><g id="Code-hover"><g id="bracket"><path id="path93" d="M373.9,168c-5.5,0-10,4.5-10,10c0,2.8,1.2,5.5,3.3,7.4l91.5,82.2l-91.4,82.1c-4.1,3.7-4.4,10-0.8,14.1 s10,4.4,14.1,0.8l99-89c4.3-4.5,4.3-11.7-0.1-16.1l-99-89C378.7,168.9,376.4,168,373.9,168z" class="st1"/></g><g id="bracket-2"><path id="path96" d="M208,165c-2.5,0-4.8,0.9-6.7,2.6l-99,89c-4.4,4.5-4.5,11.6-0.1,16.1l99,89c4.1,3.7,10.4,3.4,14.1-0.8 s3.4-10.4-0.8-14.1l0,0l-91.4-82.1l91.5-82.2c4.1-3.7,4.4-10,0.8-14.1C213.5,166.2,210.8,165,208,165z" class="st1"/></g><line id="line99" x1="242.2" x2="336.5" y1="407.4" y2="133.3" class="st3"/></g><path id="path102" d="M197.8,347.4" class="st2"/></g><path id="path114" d="M 0.29184078,255.86476 C 0.47722877,46.362655 0.5358929,37.942866 1.8372019,34.066461 7.4243715,17.423115 20.871743,4.7644458 36.477118,1.4582129 c 7.593881,-1.60887786 498.451882,-1.60887786 506.045772,0 17.29682,3.664592 32.13626,19.0824851 35.26379,36.6383981 0.88745,4.981557 1.04779,38.068954 1.06952,220.698599 l 0.0256,214.83848 H 289.49045 0.09913758 Z M 559.10124,276.19474 V 97.803709 H 289.5 19.898764 V 276.19474 454.58578 H 289.5 559.10124 Z m -0.12319,-216.303704 -0.24312,-16.666925 -2.19784,-3.972556 c -3.77076,-6.815616 -13.05038,-12.740876 -24.90881,-15.904888 -4.9571,-1.322631 -13.05149,-1.368305 -242.49459,-1.368305 -229.443086,0 -237.537483,0.04567 -242.494586,1.368305 -11.936888,3.184947 -21.811335,9.791777 -25.249462,16.894001 -1.365104,2.819929 -1.490878,4.481746 -1.490878,19.698518 V 76.55796 h 269.661196 269.6612 z" style="fill:none;stroke:#ffc56f;stroke-width:.732612;stroke-opacity:1;fill-opacity:1"/><path id="path939" d="M 1.0340724,302.75193 C 1.1363749,209.1699 1.3211377,110.8442 1.4446564,84.250386 L 1.6692358,35.897991 3.7115028,31.17381 C 9.5740186,17.612612 19.665371,7.8733847 32.719474,3.1780317 L 37.481453,1.4652241 H 289.5 541.51855 l 4.76198,1.7128076 c 13.93148,5.0109315 25.5683,17.0389763 29.68543,30.6834253 0.58115,1.925967 1.22274,6.798512 1.42576,10.827878 0.20303,4.029367 0.55779,102.025385 0.78835,217.768935 l 0.41922,210.44281 H 289.72368 0.84806776 Z M 559.46754,276.19474 V 97.071097 H 289.5 19.532457 V 276.19474 455.31839 H 289.5 559.46754 Z M 559.63711,59.891036 C 559.29294,43.176585 559.20949,42.371967 557.51761,39.455663 553.77192,32.999152 545.28017,27.046957 534.55873,23.362912 530.63946,22.01619 523.924,21.978362 288.76739,21.978362 H 47.00541 l -5.966714,2.404416 C 30.537252,28.614561 23.004853,34.500132 20.539729,40.400005 19.781941,42.213647 19.532457,47.080768 19.532457,60.050658 V 77.290572 H 289.76393 559.9954 Z" style="fill:#ffc56f;fill-opacity:1;stroke:#ffc56f;stroke-width:.732612;stroke-opacity:1"/><path id="path941" d="M 203.21233,362.45596 C 198.8697,359.73134 102.41524,272.4141 100.93537,269.8678 c -1.71022,-2.94268 -1.952137,-5.84899 -0.76929,-9.2421 0.55237,-1.58455 15.07971,-15.09273 49.95132,-46.44703 27.04483,-24.31697 50.30085,-45.11086 51.68004,-46.20864 3.36646,-2.67956 6.6556,-3.22669 9.96291,-1.65727 5.22229,2.47814 7.19625,9.31286 4.00425,13.86447 -0.86522,1.23375 -22.13509,20.68758 -47.26638,43.23075 -25.13129,22.54317 -45.60504,41.20678 -45.49721,41.47469 0.10783,0.26791 20.63593,18.8131 45.618,41.21152 24.98207,22.39843 46.16372,41.77866 47.07033,43.06719 5.54385,7.87929 -4.33353,18.40389 -12.47701,13.29458 z" style="fill:#ffc56f;fill-opacity:1;stroke:#ffc56f;stroke-width:.732612;stroke-opacity:1"/><path id="path943" d="m 241.94307,406.93077 c -4.39773,-1.59039 -8.12096,-3.0167 -8.27385,-3.16958 -0.32921,-0.32922 92.83132,-271.62233 93.56666,-272.4758 0.27711,-0.32162 4.49129,0.78239 9.36484,2.45337 l 8.86101,3.03815 -5.83463,16.96085 c -3.20904,9.32847 -24.34621,70.78036 -46.97148,136.55977 -22.62528,65.7794 -41.49232,119.58225 -41.92677,119.56188 -0.43444,-0.0204 -4.38804,-1.33826 -8.78578,-2.92864 z" style="fill:#ffc56f;fill-opacity:1;stroke:#ffc56f;stroke-width:.732612;stroke-opacity:1"/><path id="path945" d="m 368.92427,365.00196 c -4.38814,-2.95716 -5.64195,-8.29849 -2.96135,-12.61556 0.75058,-1.20881 21.98551,-20.65966 47.18872,-43.22411 25.2032,-22.56445 45.7695,-41.27277 45.70287,-41.57404 -0.0666,-0.30127 -20.89068,-19.19978 -46.27568,-41.9967 -25.38501,-22.79692 -46.55498,-42.16612 -47.04437,-43.04266 -1.22041,-2.18586 -1.16127,-6.73651 0.11975,-9.21373 2.09718,-4.0555 7.38094,-5.99809 11.50019,-4.22807 1.35129,0.58064 24.87481,21.19045 52.2745,45.79958 50.4238,45.2883 53.11438,47.95665 53.11438,52.67549 0,4.64836 -1.764,6.39864 -52.01028,51.606 -27.45981,24.70601 -50.96981,45.49696 -52.24443,46.2021 -3.15357,1.74461 -6.39899,1.61003 -9.3643,-0.3883 z" style="fill:#ffc56f;fill-opacity:1;stroke:#ffc56f;stroke-width:.732612;stroke-opacity:1"/><path id="path947" d="M -0.1137219,447.62597 C -0.0398316,433.52318 0.22938809,424.62195 0.48454405,427.84544 1.0474581,434.95697 1.9329953,104.57877 1.4869999,53.846986 1.3533675,38.646365 1.5150057,35.120966 2.3969406,34.000779 2.8443537,33.432499 4.6480921,30.165301 6.405248,26.74034 11.096182,17.597005 18.448718,10.430318 27.810642,5.8760091 c 3.877225,-1.88616 7.272761,-3.3747833 7.545635,-3.3080518 0.272874,0.066731 0.720518,-0.2417285 0.994763,-0.6854666 0.778325,-1.25935711 505.58833,-1.1391524 506.38794,0.1205805 0.32377,0.5100573 0.59371,0.7048707 0.59988,0.4329185 0.0222,-0.9776097 12.0471,5.4124884 16.20287,8.6102773 8.71119,6.703112 16.19734,18.746923 17.18823,27.652651 0.14242,1.280046 0.46824,43.536785 0.72404,93.903862 0.25581,50.36708 0.69595,101.79645 0.97808,114.28748 0.28215,12.49104 0.24997,23.26907 -0.0715,23.95118 -0.33183,0.7041 -0.21159,2.0586 0.27815,3.13348 0.65986,1.44821 0.66065,2.09525 0.004,2.75253 -0.64692,0.64691 -0.81552,16.7102 -0.68225,64.99944 l 0.17701,64.14019 0.37859,-63.00464 c 0.37217,-61.9368 0.38159,-61.36564 0.5556,33.70016 l 0.17701,96.70479 H 289.50029 -0.24777496 l 0.1343461,-25.64142 z M 559.10124,276.19474 V 97.071097 H 289.5 19.898764 V 276.19474 455.31839 H 289.5 559.10124 Z m 19.18206,130.63389 c -0.23387,-0.58442 -0.40747,-0.41083 -0.44262,0.44262 -0.0318,0.77229 0.14135,1.205 0.38479,0.96156 0.24344,-0.24344 0.26946,-0.87533 0.0578,-1.40418 z M 560.20015,74.961598 c 0,-1.280935 -0.40241,-3.441835 -0.89425,-4.801995 -0.73124,-2.022192 -0.71168,-2.58586 0.1073,-3.092013 0.8078,-0.499245 0.90121,-2.440279 0.4829,-10.033401 -0.93977,-17.05848 -1.05981,-17.505894 -6.03616,-22.49646 -3.75236,-3.763082 -8.09544,-6.706565 -14.03559,-9.512491 L 534.92504,22.710974 292.79675,22.532162 C 159.6262,22.433816 49.459283,22.288542 47.98139,22.209331 c -1.477894,-0.07921 -3.20869,0.288878 -3.846214,0.817975 -0.637523,0.529097 -1.159133,0.748324 -1.159133,0.487171 0,-0.261154 -1.071445,0.09258 -2.380989,0.786084 -1.309544,0.6935 -2.817185,1.335684 -3.350313,1.427074 -1.906134,0.326757 -9.034605,5.074534 -11.955217,7.962535 -5.296985,5.237839 -5.290707,5.20792 -5.343507,25.466626 l -0.04725,18.130523 270.150693,0.0016 270.15069,0.0016 z" style="fill:#ffc56f;fill-opacity:1;stroke:#ffc56f;stroke-width:.732612;stroke-opacity:1"/><path id="path949" d="m 372.69187,365.91578 c -4.02085,-0.59121 -7.87582,-4.508 -7.67888,-7.802 0.33293,-5.56857 -1.59226,-3.3159 18.62766,-21.79615 6.24552,-5.70817 23.38864,-21.21341 38.09583,-34.4561 14.70718,-13.24268 29.2075,-26.37154 32.22291,-29.17523 l 5.48258,-5.09762 -4.01735,-3.70202 c -2.20955,-2.03611 -13.90762,-12.62021 -25.99572,-23.5202 -32.803,-29.57889 -60.57675,-54.92523 -62.60137,-57.13004 -1.46204,-1.59217 -1.75749,-2.59546 -1.5945,-5.41452 0.25268,-4.37033 1.52149,-6.33506 5.3537,-8.29011 2.83061,-1.44407 3.20563,-1.47401 5.39373,-0.43057 2.68567,1.28071 26.61488,22.08552 60.77456,52.83934 44.85921,40.38655 47.0979,42.79142 44.82142,48.14857 -0.57086,1.34341 -4.79023,6.07613 -9.37636,10.51718 -16.83379,16.30126 -89.21869,80.99218 -95.15294,85.0389 -0.62826,0.42843 -2.49359,0.54431 -4.35527,0.27057 z" style="fill:#ffc56f;fill-opacity:1;stroke:#ffc56f;stroke-width:.732612;stroke-opacity:1"/><path id="path951" style="fill:#ffc56f;fill-opacity:1;stroke:#ffc56f;stroke-width:.732612;stroke-opacity:1"/></svg>