<?xml version="1.0" encoding="UTF-8" standalone="no"?>
<svg
   xmlns:dc="http://purl.org/dc/elements/1.1/"
   xmlns:cc="http://creativecommons.org/ns#"
   xmlns:rdf="http://www.w3.org/1999/02/22-rdf-syntax-ns#"
   xmlns:svg="http://www.w3.org/2000/svg"
   xmlns="http://www.w3.org/2000/svg"
   xmlns:sodipodi="http://sodipodi.sourceforge.net/DTD/sodipodi-0.dtd"
   xmlns:inkscape="http://www.inkscape.org/namespaces/inkscape"
   inkscape:version="1.0 (4035a4f, 2020-05-01)"
   sodipodi:docname="Lightbulb-mobile.svg"
   xml:space="preserve"
   style="enable-background:new 0 0 409.5 563.4;"
   viewBox="0 0 409.5 563.4"
   y="0px"
   x="0px"
   id="bulb_hover"
   version="1.1"><metadata
   id="metadata1079"><rdf:RDF><cc:Work
       rdf:about=""><dc:format>image/svg+xml</dc:format><dc:type
         rdf:resource="http://purl.org/dc/dcmitype/StillImage" /></cc:Work></rdf:RDF></metadata><defs
   id="defs1077" /><sodipodi:namedview
   inkscape:current-layer="bulb_hover"
   inkscape:window-maximized="0"
   inkscape:window-y="26"
   inkscape:window-x="0"
   inkscape:cy="281.70001"
   inkscape:cx="204.75"
   inkscape:zoom="1.228257"
   showgrid="false"
   id="namedview1075"
   inkscape:window-height="874"
   inkscape:window-width="1440"
   inkscape:pageshadow="2"
   inkscape:pageopacity="0"
   guidetolerance="10"
   gridtolerance="10"
   objecttolerance="10"
   borderopacity="1"
   bordercolor="#666666"
   pagecolor="#ffffff" />
<style
   id="style1053"
   type="text/css">
	.st0{fill:#E9EDF5;stroke:#B2819F;stroke-width:20;stroke-miterlimit:10;}
	.st1{fill:#E9EDF5;}
	.st2{fill:#B2819F;}
	.st3{fill:none;stroke:#B2819F;stroke-width:20;stroke-miterlimit:10;}
	.st4{display:none;fill:#B2819F;}
</style>
<title
   id="title1055">Lightbulb-mobile</title>
<path
   id="path1057"
   d="M127.8,478.6h156.4c6.8,0,12.4,5.5,12.4,12.4c0,0,0,0,0,0v2.7c0,33-26.7,59.7-59.7,59.7h0h-61.8  c-33,0-59.7-26.7-59.7-59.7V491C115.4,484.2,120.9,478.6,127.8,478.6C127.7,478.6,127.7,478.6,127.8,478.6z"
   class="st0" />
<path
   id="path1059"
   d="M117,459.9c-0.5-19.5-3.6-61.6-21.1-84.1c-11-14.2-19.4-23.9-26.7-32.5c-6.8-8-12.7-14.8-19.5-23.8  C23.8,286,9.9,244.8,10,202.5C10,96.4,96.4,10,202.5,10c0.6,0,1.1,0,1.7,0.1h0.6h0.6c0.6,0,1.1-0.1,1.7-0.1  c106.2,0,192.5,86.4,192.5,192.5c0.1,42.3-13.8,83.5-39.7,117c-6.9,9-12.7,15.8-19.5,23.8c-7.3,8.6-15.7,18.3-26.7,32.5  c-17.5,22.5-20.6,64.5-21.1,84.1l-87.8-0.4L117,459.9z"
   class="st1" />
<path
   id="path1061"
   d="M207,20c100.8,0,182.5,81.7,182.5,182.5c0,40.1-13.2,79.1-37.6,111c-6.7,8.7-12.5,15.5-19.2,23.4  c-7.4,8.7-15.8,18.5-27,32.9c-16.8,21.5-21.6,57.3-22.8,80.2l-78.1-0.3h-0.2l-78.1,0.3c-1.3-22.8-6.1-58.6-22.8-80.2  c-11.2-14.4-19.6-24.2-27-32.9c-6.7-7.9-12.5-14.6-19.2-23.4c-61.3-80-46.1-194.6,34-255.8C123.4,33.2,162.4,20,202.5,20  c0.3,0,0.6,0,1.1,0l1.2,0.1L206,20C206.5,20,206.8,20,207,20 M207.1,0c-0.8,0-1.5,0-2.3,0.1S203.3,0,202.5,0C90.7,0,0,90.7,0,202.5  c-0.1,44.5,14.6,87.8,41.7,123.1C56.5,344.8,67.1,355.2,88,382s19,88,19,88l97.8-0.4l97.8,0.4c0,0-1.9-61.2,19-88  s31.5-37.2,46.3-56.4c27.1-35.3,41.8-78.6,41.7-123.1C409.5,90.7,318.9,0,207.1,0L207.1,0z"
   class="st2" />
<path
   id="path1063"
   d="M120.8,432h167.4c15.4,0,27.8,12.5,27.8,27.8v4.4c0,15.4-12.5,27.8-27.8,27.8H120.8  c-15.4,0-27.8-12.5-27.8-27.8v-4.4C93,444.5,105.5,432,120.8,432z"
   class="st0" />
<g
   id="bulb_inside">
	<line
   id="line1065"
   y2="432"
   x2="206"
   y1="309"
   x1="206"
   class="st3" />
	<path
   id="path1067"
   d="M244.9,284.5c-30.1,21.5-72,14.5-93.5-15.6c-21.5-30.1-14.5-72,15.6-93.5c30.1-21.5,72-14.5,93.5,15.6   c1.5,2.2,3,4.4,4.2,6.8c2.4,4.4,7.7,6.3,12.4,4.4l0,0c5.1-2,7.6-7.8,5.6-13c-0.1-0.3-0.3-0.7-0.5-1c-2.2-4-4.8-7.9-7.6-11.5   c-28.2-36.4-80.4-44.4-118.2-18.2c-39.5,27.3-49.4,81.5-22,121c0.1,0.2,0.3,0.4,0.4,0.6c27.2,38.7,81.2,48.5,120.2,21.8   c12.4-8.4,22.4-19.8,29-33.2c2.4-5,0.4-10.9-4.6-13.4c-0.5-0.2-1-0.5-1.6-0.6l-0.2-0.1c-4.6-1.4-9.5,0.7-11.6,5   C261.2,269.5,253.9,278.1,244.9,284.5z"
   class="st4" />
</g>
<path
   id="path1070"
   d="M244.9,284.5c-30.1,21.5-72,14.5-93.5-15.6c-21.5-30.1-14.5-72,15.6-93.5c30.1-21.5,72-14.5,93.5,15.6  c1.5,2.2,3,4.4,4.2,6.8c2.4,4.4,7.7,6.3,12.4,4.4l0,0c5.1-2,7.6-7.8,5.6-13c-0.1-0.3-0.3-0.7-0.5-1c-2.2-4-4.8-7.9-7.6-11.5  c-28.2-36.4-80.4-44.4-118.2-18.2c-39.5,27.3-49.4,81.5-22,121c0.1,0.2,0.3,0.4,0.4,0.6c27.2,38.7,81.2,48.5,120.2,21.8  c12.4-8.4,22.4-19.8,29-33.2c2.4-5,0.4-10.9-4.6-13.4c-0.5-0.2-1-0.5-1.6-0.6l-0.2-0.1c-4.6-1.4-9.5,0.7-11.6,5  C261.2,269.5,253.9,278.1,244.9,284.5z"
   class="st4" />
<circle
   id="circle1072"
   r="73.8"
   cy="236.7"
   cx="206"
   class="st3" />
<path
   id="path1081"
   d="m 168.20208,562.56052 c -17.76371,-1.81922 -34.10351,-10.53326 -46.32012,-24.7026 -7.47434,-8.66905 -15.64555,-27.82038 -15.64555,-36.66937 0,-2.15789 -0.53045,-2.79859 -3.71621,-4.48864 -5.269766,-2.7956 -12.074051,-9.91306 -14.918325,-15.60496 -3.353338,-6.71062 -4.436645,-12.70947 -3.955565,-21.90402 0.477766,-9.13113 2.475785,-15.07955 7.177163,-21.36761 2.775209,-3.71183 10.486377,-10.48385 12.898187,-11.32733 1.03087,-0.36052 -2.24046,-15.93188 -5.190615,-24.7071 -1.20434,-3.58231 -3.453397,-8.9181 -4.997903,-11.8573 C 90.701275,384.54252 79.097916,369.65269 63.119529,350.90377 35.651336,318.67281 22.769753,298.77746 13.833591,274.78261 4.1674328,248.82762 0.85160153,230.31162 0.8569027,202.31923 0.8604649,183.50958 1.290634,178.86477 4.5892925,162.01822 12.239502,122.94789 32.507383,86.283444 62.459607,57.33125 79.082141,41.263704 93.775436,30.994189 114.78511,20.759637 136.84413,10.013916 158.14136,3.978805 183.80613,1.2007783 c 7.79926,-0.84421293 36.24231,-0.59608659 45.36873,0.3957794 36.87475,4.0075755 74.53191,19.6299653 103.80564,43.0646403 40.00514,32.025564 66.29025,77.701452 74.0948,128.755282 1.84532,12.07125 2.45599,34.24917 1.29135,46.89804 -2.18899,23.77415 -8.73375,47.61832 -18.80714,68.51909 -10.34242,21.45898 -16.36364,30.15183 -42.55222,61.43262 -20.70987,24.73678 -27.3799,33.22662 -30.56427,38.90315 -3.21774,5.73603 -7.7699,19.40194 -9.76322,29.30983 l -1.55606,7.73454 3.76287,2.53833 c 7.15527,4.82677 12.65871,12.35393 15.06853,20.60951 1.88698,6.46448 1.72688,19.64067 -0.31915,26.26495 -2.0732,6.71223 -6.52469,13.03248 -12.6501,17.96069 -4.85079,3.90272 -4.87552,3.94456 -5.49151,9.29286 -0.72639,6.30689 -4.698,18.66783 -7.67355,23.88265 -9.5948,16.81537 -25.72745,29.21921 -44.6282,34.31312 -6.13695,1.65396 -8.58314,1.76777 -42.33642,1.96982 -19.70271,0.11793 -38.89708,-0.10039 -42.65413,-0.48516 z m 83.78175,-20.93419 c 16.84196,-5.66547 30.7727,-20.96159 33.80338,-37.11653 l 0.56019,-2.98608 h -80.37616 -80.37616 l 0.56019,2.98608 c 2.53065,13.48955 13.80757,27.78948 26.86896,34.07175 10.57855,5.08808 11.95275,5.21333 54.98242,5.011 37.39037,-0.17581 38.84858,-0.241 43.97718,-1.96622 z m 46.20591,-62.27029 c 1.84553,-1.22139 4.38329,-3.96919 5.63946,-6.10622 2.04729,-3.48287 2.28335,-4.64479 2.27812,-11.21295 -0.008,-10.02923 -2.57462,-14.78186 -10.17119,-18.83403 -2.72214,-1.45204 -6.68926,-1.53009 -88.71376,-1.74523 -60.93314,-0.15982 -87.13715,0.0391 -90.24834,0.68494 -3.0845,0.64034 -5.34333,1.77671 -7.61983,3.8334 -5.04963,4.56202 -6.37444,7.89999 -6.37444,16.06092 0,7.73635 1.28877,11.3425 5.42104,15.1688 5.4721,5.06696 -1.45091,4.74175 96.81595,4.54789 l 89.61748,-0.17681 z m -101.77883,-108.28296 -0.20961,-51.47695 -4.07081,-0.66936 c -16.91694,-2.78168 -33.3827,-11.56131 -45.64866,-24.34013 -7.60387,-7.92181 -10.73246,-12.27481 -14.99806,-20.86777 -8.97291,-18.07568 -11.11015,-37.94615 -6.17429,-57.40387 4.71048,-18.56928 15.36955,-34.58715 30.70628,-46.14372 24.88896,-18.7544 57.95413,-22.05401 85.84833,-8.56691 40.34879,19.509 58.14542,66.50706 40.77424,107.67826 -10.30726,24.4291 -33.90143,43.71997 -59.97677,49.03769 l -6.92037,1.41132 -0.20962,51.40919 -0.2096,51.40919 h 35.34038 35.34039 l 1.34586,-6.30976 c 4.0139,-18.81802 10.97005,-35.97866 18.72892,-46.20368 2.03873,-2.68674 12.94475,-15.9769 24.23561,-29.5337 11.29086,-13.55681 22.81654,-27.84535 25.61262,-31.75231 17.74453,-24.79446 29.26823,-55.1755 32.91436,-86.77529 1.35926,-11.78023 0.51535,-38.4908 -1.58564,-50.18712 C 381.75311,141.16178 370.59816,115.63501 351.862,90.796734 345.03924,81.7519 326.39864,63.343596 317.10434,56.472226 291.49588,37.539637 264.65955,26.337199 233.21664,21.454516 221.48445,19.632659 190.18493,19.396581 179.1039,21.04637 124.02061,29.247392 78.311237,58.040366 49.014517,102.99148 27.715723,135.67106 17.479238,175.08656 20.050558,214.51699 c 1.560392,23.92816 7.024383,44.96524 17.343805,66.77594 7.991335,16.89015 17.301582,30.36297 37.132766,53.73469 23.553441,27.75851 32.249461,39.17821 36.524021,47.96365 4.45045,9.14694 8.13744,20.16934 10.23669,30.60297 0.76582,3.8062 1.52794,7.37834 1.69363,7.93808 0.23521,0.79463 8.33846,1.0177 36.97014,1.0177 h 36.66891 z m 25.81075,-72.39454 c 3.56426,-0.88503 9.7926,-3.30872 13.84075,-5.38598 5.99136,-3.07439 8.80516,-5.2229 15.12899,-11.55195 6.56657,-6.57201 8.36418,-8.97198 11.61694,-15.50967 5.10055,-10.25155 7.07461,-18.3379 7.07461,-28.97976 0,-13.49636 -3.19715,-24.929 -9.88259,-35.33903 -7.59414,-11.82499 -19.97855,-21.37391 -33.85227,-26.10159 -7.54649,-2.57158 -8.58391,-2.71629 -19.76977,-2.75758 -10.1794,-0.0376 -12.64635,0.21916 -17.91156,1.86403 -28.33185,8.85099 -46.41714,32.86616 -46.38738,61.59702 0.0193,18.60202 5.6998,32.16009 19.11276,45.61761 5.5658,5.5843 8.8937,8.16099 13.84095,10.71663 15.65337,8.0862 30.64413,9.93835 47.18857,5.83027 z"
   style="fill:#ffc56f;stroke:#ffc56f;stroke-width:0.814162" /></svg>
