<?xml version="1.0" encoding="UTF-8" standalone="no"?>
<svg
   xmlns:dc="http://purl.org/dc/elements/1.1/"
   xmlns:cc="http://creativecommons.org/ns#"
   xmlns:rdf="http://www.w3.org/1999/02/22-rdf-syntax-ns#"
   xmlns:svg="http://www.w3.org/2000/svg"
   xmlns="http://www.w3.org/2000/svg"
   xmlns:sodipodi="http://sodipodi.sourceforge.net/DTD/sodipodi-0.dtd"
   xmlns:inkscape="http://www.inkscape.org/namespaces/inkscape"
   version="1.1"
   id="Layer_1"
   x="0px"
   y="0px"
   viewBox="0 0 579.4 603.4"
   style="enable-background:new 0 0 579.4 603.4;"
   xml:space="preserve"
   sodipodi:docname="research-mobile.svg"
   inkscape:version="1.0 (4035a4f, 2020-05-01)"><metadata
   id="metadata1202"><rdf:RDF><cc:Work
       rdf:about=""><dc:format>image/svg+xml</dc:format><dc:type
         rdf:resource="http://purl.org/dc/dcmitype/StillImage" /></cc:Work></rdf:RDF></metadata><defs
   id="defs1200" /><sodipodi:namedview
   inkscape:document-rotation="0"
   pagecolor="#ffffff"
   bordercolor="#666666"
   borderopacity="1"
   objecttolerance="10"
   gridtolerance="10"
   guidetolerance="10"
   inkscape:pageopacity="0"
   inkscape:pageshadow="2"
   inkscape:window-width="1440"
   inkscape:window-height="855"
   id="namedview1198"
   showgrid="false"
   inkscape:zoom="0.74455515"
   inkscape:cx="471.87548"
   inkscape:cy="360.84475"
   inkscape:window-x="0"
   inkscape:window-y="23"
   inkscape:window-maximized="0"
   inkscape:current-layer="Layer_1" />
<style
   type="text/css"
   id="style1166">
	.st0{fill:#E9EDF5;}
	.st1{fill:#B2819F;}
	.st2{fill:none;stroke:#B2819F;stroke-width:19.5435;stroke-miterlimit:10;}
	.st3{fill:#E9EDF5;stroke:#E9EDF5;stroke-width:24.4293;stroke-miterlimit:10;}
</style>
<title
   id="title1168">research-mobile</title>
<g
   id="form_hover">
	<polygon
   class="st0"
   points="140.6,453.4 140.6,9.8 418.7,9.8 424.5,130.5 567.8,123.6 569.6,453.4  "
   id="polygon1170" />
	<path
   class="st1"
   d="M409.4,19.5l4.9,101.6l1,19.5l19.5-1l123.3-5.9l1.8,309.8H150.4V19.5H409.4 M427.9,0H130.9v463.2h448.5   l-2-349.8l-143.6,6.8L427.9,0z"
   id="path1172" />
	<line
   class="st2"
   x1="422.1"
   y1="7.8"
   x2="571.6"
   y2="121.2"
   id="line1174" />
</g>
<g
   id="text_hover">
	<line
   class="st2"
   x1="205.1"
   y1="112.4"
   x2="382"
   y2="112.4"
   id="line1177" />
	<line
   class="st2"
   x1="205.1"
   y1="191.5"
   x2="506.1"
   y2="191.5"
   id="line1179" />
	<line
   class="st2"
   x1="205.1"
   y1="270.7"
   x2="506.1"
   y2="270.7"
   id="line1181" />
	<line
   class="st2"
   x1="205.1"
   y1="349.8"
   x2="506.1"
   y2="349.8"
   id="line1183" />
</g>
<g
   id="glass_hover">
	<circle
   class="st0"
   cx="240.3"
   cy="347.9"
   r="148.5"
   id="circle1186" />
	<path
   class="st3"
   d="M240.3,209.1c76.6,0,138.8,62.1,138.8,138.8s-62.1,138.8-138.8,138.8s-138.8-62.1-138.8-138.8l0,0   C101.6,271.3,163.7,209.1,240.3,209.1 M240.3,189.6c-87.2,0.1-157.8,70.8-157.7,158c0.1,87.2,70.8,157.8,158,157.7   s157.8-70.8,157.7-158c-0.1-63.4-38-120.6-96.4-145.3C282.4,193.8,261.5,189.6,240.3,189.6z"
   id="path1188" />
	<path
   class="st2"
   d="M55.7,582.4l116-116c4.4-4.5,4.4-11.6,0-16.1l-18.5-18.4c-4.9-4.8-12.6-4.8-17.5,0L20.5,547.2   c-9.7,9.8-9.7,25.4,0,35.2l0,0C30.2,592.1,46,592.1,55.7,582.4z"
   id="path1190" />
	<circle
   class="st0"
   cx="240.3"
   cy="347.9"
   r="129"
   id="circle1192" />
	<path
   class="st1"
   d="M240.3,228.7c65.9,0,119.2,53.4,119.2,119.2s-53.4,119.2-119.2,119.2s-119.2-53.4-119.2-119.2   c0-31.7,12.6-62,34.9-84.3C178.4,241.2,208.7,228.6,240.3,228.7 M240.3,209.1c-76.6,0-138.8,62.1-138.8,138.8   s62.1,138.8,138.8,138.8s138.8-62.1,138.8-138.8S316.9,209.1,240.3,209.1z"
   id="path1194" />
</g>
<path
   style="fill:#ffc56f;stroke:#ffc56f;stroke-width:0.871965"
   d="m 368.51195,460.17972 c 1.26636,-1.55864 4.66955,-5.87487 7.56264,-9.59162 l 5.26016,-6.75774 h 89.33726 89.33726 l -0.0459,-46.86813 c -0.0742,-75.88821 -1.45256,-262.7247 -1.94177,-263.21391 -0.2477,-0.2477 -32.37162,1.09472 -71.3865,2.98313 -39.01489,1.88841 -70.97051,3.38521 -71.0125,3.32623 -0.10643,-0.14951 -5.65756,-118.443198 -5.62106,-119.784486 0.0236,-0.867221 -26.52041,-1.089956 -129.89319,-1.089956 H 150.18556 l -0.0286,91.774352 -0.0286,91.77435 -6.72914,4.62133 c -3.70102,2.54174 -8.00439,5.633 -9.56302,6.86949 l -2.83389,2.24815 V 108.23545 0 H 279.10236 427.2024 l 74.46054,56.475095 74.46053,56.475095 0.54654,3.90851 c 0.30059,2.14968 0.79726,65.51285 1.10371,140.80706 0.30644,75.29421 0.80751,152.29965 1.11346,171.1232 l 0.55629,34.22464 H 472.82647 366.20946 Z M 494.46246,117.77525 c 28.93247,-1.38728 52.7372,-2.65504 52.89939,-2.81723 0.16219,-0.16219 -26.44134,-20.579394 -59.11896,-45.371551 -32.67762,-24.792162 -59.45513,-44.999888 -59.50559,-44.906057 -0.0844,0.156959 4.66829,94.939898 4.78526,95.432818 0.11371,0.47911 10.49275,0.0809 60.9399,-2.33798 z"
   id="path1204" /><path
   style="fill:#ffc56f;stroke:#ffc56f;stroke-width:0.871965"
   d="M 29.854337,597.84226 C 12.599711,593.09203 1.1492328,575.69296 4.4410374,559.22658 6.7540678,547.65626 5.4791146,549.11502 68.439078,486.00227 l 58.398372,-58.54009 -4.17327,-6.85731 c -8.64393,-14.20328 -15.11387,-30.72737 -18.40239,-46.99935 -2.24552,-11.11111 -2.24317,-40.27852 0.004,-51.41432 3.72476,-18.4568 12.23642,-38.51215 22.78505,-53.68658 7.37942,-10.61546 25.08558,-27.95239 35.7885,-35.04219 24.25148,-16.06476 49.04897,-23.61305 77.59427,-23.61957 30.59755,-0.007 57.24571,8.77068 82.40073,27.1421 8.81324,6.43656 23.64045,21.62295 30.23836,30.97085 11.09809,15.72375 19.91077,36.71208 23.50487,55.97932 2.24935,12.05827 2.24393,35.78816 -0.011,47.95809 -10.27136,55.43606 -53.15497,99.92221 -107.17184,111.17681 -25.37816,5.28763 -49.99615,3.81584 -74.09602,-4.42984 -4.43027,-1.5158 -9.51084,-3.49377 -11.29016,-4.39548 -1.77929,-0.90172 -3.73477,-1.63949 -4.34548,-1.63949 -0.6107,0 -28.38754,27.2107 -61.72628,60.46823 -47.714787,47.59853 -61.489753,60.86511 -64.721643,62.33302 -8.059038,3.66035 -15.93149,4.48119 -23.36118,2.43579 z M 45.985696,578.319 c 0.959162,-0.53424 27.571606,-26.82411 59.138764,-58.42194 l 57.39484,-57.45059 -5.07692,-3.79823 c -2.7923,-2.08902 -8.13254,-6.75234 -11.86719,-10.36291 l -6.79028,-6.56468 -55.828698,55.77069 c -30.705781,30.67387 -56.830771,57.45331 -58.055536,59.50986 -1.894717,3.1815 -2.170635,4.51627 -1.849974,8.94937 0.39764,5.49732 1.973517,8.4667 6.147057,11.58269 3.99905,2.98572 12.15291,3.36736 16.787937,0.78574 z M 267.02891,464.45278 c 15.72855,-3.72975 27.7913,-9.06928 41.41836,-18.33367 9.42109,-6.40496 22.57009,-19.3504 29.36093,-28.90641 9.80275,-13.79435 17.36378,-32.0833 20.32871,-49.17195 1.62949,-9.39171 1.86554,-29.07789 0.45637,-38.06049 -8.18179,-52.15389 -48.47229,-92.29396 -100.72,-100.34398 -10.68163,-1.64576 -31.73479,-1.17605 -41.41836,0.92407 -47.77057,10.36024 -83.19678,46.03049 -93.43879,94.08246 -2.68914,12.61648 -2.68914,33.92625 0,46.54273 4.94801,23.21432 14.94398,42.46869 30.59231,58.92725 18.30133,19.24893 41.66398,31.59545 68.07827,35.9775 11.56295,1.91825 33.72213,1.11799 45.3422,-1.63751 z"
   id="path1206" /><path
   style="fill:#ffc56f;stroke:#ffc56f;stroke-width:0.871965"
   d="m 205.11937,112.48353 v -9.59162 h 88.0685 88.0685 v 9.59162 9.59162 h -88.0685 -88.0685 z"
   id="path1208" /><path
   style="fill:#ffc56f;stroke:#ffc56f;stroke-width:0.871965"
   d="m 315.89999,194.78748 c -5.97221,-3.03151 -15.58563,-7.07614 -21.36316,-8.98808 l -10.50459,-3.47624 110.95759,-0.0412 110.95759,-0.0412 v 9.15564 9.15563 l -89.59444,-0.12636 -89.59444,-0.12637 z"
   id="path1210" /><path
   style="fill:#ffc56f;stroke:#ffc56f;stroke-width:0.871965"
   d="m 424.26369,280.11923 c 15.26135,-0.13366 39.98157,-0.13358 54.93381,1.9e-4 14.95225,0.13376 2.46568,0.24312 -27.74791,0.24301 -30.2136,-1e-4 -42.44726,-0.10954 -27.1859,-0.2432 z"
   id="path1212" /><path
   style="fill:#ffc56f;stroke:#ffc56f;stroke-width:0.871965"
   d="m 392.85213,271.18122 c -2.30123,-4.55601 -4.31485,-8.57795 -4.47471,-8.93764 -0.15986,-0.35969 26.228,-0.65397 58.63967,-0.65397 h 58.93033 v 8.93764 8.93765 H 451.4918 397.03619 Z"
   id="path1214" /><path
   style="fill:#ffc56f;stroke:#ffc56f;stroke-width:0.871965"
   d="m 401.99972,280.12636 c 3.01618,-0.17076 7.72479,-0.16935 10.46359,0.003 2.73879,0.17248 0.27101,0.31219 -5.48396,0.31047 -5.75497,-0.002 -7.9958,-0.14285 -4.97963,-0.3136 z"
   id="path1216" /><path
   style="fill:#ffc56f;stroke:#ffc56f;stroke-width:0.871965"
   d="m 399.56765,280.04148 c -1.81171,-0.2455 -2.8742,-1.75515 -6.29029,-8.93765 -2.2607,-4.75324 -3.83024,-8.64353 -3.48786,-8.64509 0.34238,-0.002 26.61798,-0.241 58.39022,-0.53211 l 57.7677,-0.52928 v 9.15016 9.15017 l -31.60874,0.5216 c -30.82617,0.50868 -70.39932,0.41458 -74.77103,-0.1778 z"
   id="path1218" /><path
   style="fill:none;stroke:#ffc56f;stroke-width:0.871965"
   d=""
   id="path1220" /><path
   style="fill:none;stroke:#ffc56f;stroke-width:0.871965"
   d="m 410.60516,349.65811 0.0861,-9.59162 h 47.41008 47.41008 v 9.59162 9.59162 h -47.4962 -47.49619 z"
   id="path1783" /><path
   style="fill:none;stroke:#ffc56f;stroke-width:0.871965"
   d="m 411.33918,349.65811 v -8.71966 h 46.65015 46.65014 v 8.71966 8.71965 h -46.65014 -46.65015 z"
   id="path1785" /><path
   style="fill:none;stroke:#ffc56f;stroke-width:0.871965"
   d="m 412.21114,349.65811 v -7.84769 h 45.77819 45.77818 v 7.84769 7.84768 h -45.77818 -45.77819 z"
   id="path1787" /><path
   style="fill:none;stroke:#ffc56f;stroke-width:0.871965"
   d="m 413.08311,349.65811 v -6.97573 h 44.90622 44.90621 v 6.97573 6.97572 h -44.90621 -44.90622 z"
   id="path1789" /><path
   style="fill:none;stroke:#ffc56f;stroke-width:0.871965"
   d="m 413.95508,349.65811 v -6.10376 h 44.03425 44.03425 v 6.10376 6.10375 h -44.03425 -44.03425 z"
   id="path1791" /><path
   style="fill:none;stroke:#ffc56f;stroke-width:0.871965"
   d="m 414.82704,349.65811 v -5.2318 h 43.16229 43.16228 v 5.2318 5.23179 h -43.16228 -43.16229 z"
   id="path1793" /><path
   style="fill:none;stroke:#ffc56f;stroke-width:0.871965"
   d="m 415.69901,349.65811 v -4.35983 h 42.29032 42.29032 v 4.35983 4.35982 h -42.29032 -42.29032 z"
   id="path1795" /><path
   style="fill:none;stroke:#ffc56f;stroke-width:0.871965"
   d="m 416.57097,349.65811 v -3.48786 h 41.41836 41.41835 v 3.48786 3.48786 h -41.41835 -41.41836 z"
   id="path1797" /><path
   style="fill:none;stroke:#ffc56f;stroke-width:0.871965"
   d="m 417.44294,349.65811 v -2.6159 h 40.54639 40.54638 v 2.6159 2.61589 h -40.54638 -40.54639 z"
   id="path1799" /><path
   style="fill:none;stroke:#ffc56f;stroke-width:0.871965"
   d="m 418.3149,349.65811 c 0,-1.71838 0.58131,-1.74393 39.67443,-1.74393 39.09311,0 39.67442,0.0256 39.67442,1.74393 0,1.71838 -0.58131,1.74393 -39.67442,1.74393 -39.09312,0 -39.67443,-0.0256 -39.67443,-1.74393 z"
   id="path1801" /><path
   style="fill:none;stroke:#ffc56f;stroke-width:0.871965"
   d="m 414.4246,355.55269 3.45432,-3.71237 -3.26987,3.00379 -3.26987,3.00379 v -8.18979 -8.18979 l 3.26987,3.00379 3.26987,3.00378 -3.45432,-3.71236 -3.45432,-3.71237 47.05259,0.22565 47.05258,0.22566 v 9.15564 9.15563 l -47.05258,0.22566 -47.05259,0.22566 z m 90.21487,2.56014 c 0,-0.14571 -1.47144,-1.61716 -3.26987,-3.26987 l -3.26987,-3.00494 3.00494,3.26987 c 2.79693,3.04352 3.5348,3.67079 3.5348,3.00494 z m -6.53974,-8.45472 v -2.08216 l -40.00344,-0.0489 c -41.09961,-0.0502 -41.65981,-0.006 -40.42169,3.22099 0.32657,0.85104 9.18687,1.07925 40.42169,1.04108 l 40.00344,-0.0489 z m 3.92385,-5.66778 c 1.62689,-1.67853 2.7618,-3.05188 2.52201,-3.05188 -0.23979,0 -1.76708,1.37335 -3.39398,3.05188 -1.6269,1.67854 -2.7618,3.05188 -2.52201,3.05188 0.23979,0 1.76708,-1.37334 3.39398,-3.05188 z"
   id="path1817" /><path
   style="fill:none;stroke:#ffc56f;stroke-width:0.871965"
   d="m 415.76209,355.29186 3.0859,-3.0859 39.18989,0.0496 39.18989,0.0496 3.03734,3.03627 3.03735,3.03627 h -45.31313 -45.31314 z"
   id="path1819" /><path
   style="fill:none;stroke:#ffc56f;stroke-width:0.871965"
   d="m 415.76209,355.29186 3.0859,-3.0859 39.18989,0.0496 39.18989,0.0496 3.03734,3.03627 3.03735,3.03627 h -45.31313 -45.31314 z"
   id="path1821" /><path
   style="fill:none;stroke:#ffc56f;stroke-width:0.871965"
   d="m 448.12825,350.75088 c 6.08635,-0.14968 16.28834,-0.15009 22.67109,-9.1e-4 6.38276,0.14919 1.40302,0.27165 -11.06608,0.27215 -12.46911,5e-4 -17.69136,-0.12156 -11.60501,-0.27124 z"
   id="path1823" /><path
   style="fill:none;stroke:#ffc56f;stroke-width:0.871965"
   d="m 461.70534,349.91336 c 1.08465,-0.20856 2.65419,-0.20064 3.48787,0.0176 0.83367,0.21825 -0.0538,0.3889 -1.97209,0.37922 -1.91833,-0.01 -2.60042,-0.18825 -1.51578,-0.39682 z"
   id="path1825" /><rect
   y="341.46832"
   x="411.33917"
   height="17.78141"
   width="94.172241"
   id="rect879"
   style="fill:#ffc56f;fill-opacity:1;stroke:#ffc56f" /><rect
   y="200.2993"
   x="326.75854"
   height="0.25273001"
   width="179.18887"
   id="rect885"
   style="fill:#ffc56f;fill-opacity:1;stroke:#ffc56f" /><path
   id="path887"
   d=""
   style="fill:#ffc56f;fill-opacity:1;stroke:#ffc56f;stroke-width:0.226637" /><path
   id="path889"
   d="m 281.5857,182.30401 -1.92641,-0.52322 2.09639,-0.0217 c 2.09084,-0.0216 2.09639,-0.0202 2.09639,0.5449 0,0.31163 -0.0765,0.55684 -0.16998,0.54491 -0.0935,-0.0119 -1.03686,-0.25714 -2.09639,-0.54491 z"
   style="fill:#ffc56f;fill-opacity:1;stroke:#ffc56f;stroke-width:0.226637" /></svg>
